# xmcd
#
# Track frame offsets: 
#        150
#        19116
#        34704
#        52308
#        66984
#        83568
#        98052
#        112356
#        133080
#        148944
#
# Disc length: 2200 seconds
#
# Revision: 0
# Processed by: cddbd v1.4PL0 Copyright (c) Steve Scherf et al.
# Submitted via: ExactAudioCopy v0.90b4
#
DISCID=9508960a
DTITLE=Victory Harvest - It Wat By The Cross
DYEAR=2003
DGENRE=Gospel
TTITLE0=It Was By The Cross
TTITLE1=Tempering The Steel
TTITLE2=I Pressed Through The Crowd
TTITLE3=Running Against The Grain
TTITLE4=Time Has Slipped Away
TTITLE5=In God We Trust
TTITLE6=Help Me Make It Through This Day
TTITLE7=The Lowest Valleys Grow The Best
TTITLE8=When Nothing Else Mattered
TTITLE9=So Much To Thank Him For
EXTD=
EXTT0=
EXTT1=
EXTT2=
EXTT3=
EXTT4=
EXTT5=
EXTT6=
EXTT7=
EXTT8=
EXTT9=
PLAYORDER=
